<?xml version="1.0"?>
<svg xmlns="http://www.w3.org/2000/svg" xmlns:xlink="http://www.w3.org/1999/xlink" version="1.1" id="Capa_1" x="0px" y="0px" viewBox="0 0 447.918 447.918" style="enable-background:new 0 0 447.918 447.918;" xml:space="preserve" width="512px" height="512px"><g><path id="XMLID_75_" d="M19.042,119.902c0-9.539,7.604-18.163,23.245-26.366c12.255-6.426,29.88-12.773,50.97-18.354  c4.807-1.27,9.732,1.594,11.003,6.397c1.271,4.806-1.593,9.731-6.398,11.003c-45.947,12.159-59.284,23.567-60.725,27.13  c1.142,1.376,8.702,8.437,44.763,11.734c29.32,2.68,67.428,1.799,107.307-2.483c41.315-4.437,80.445-12.056,110.181-21.451  c32.912-10.399,42.671-19.461,43.821-22.28c-1.943-2.765-15.205-10.086-55.117-12.474c-4.962-0.297-8.743-4.561-8.447-9.521  c0.297-4.962,4.559-8.753,9.521-8.447c48.533,2.904,72.126,12.812,72.126,30.29c0,14.269-17.564,26.928-53.696,38.702  c-31.198,10.167-72.561,18.363-116.467,23.078c-23.856,2.563-48.99,4.053-72.428,4.053c-42.44,0-79.319-4.888-92.978-17.159  C20.201,128.793,19.042,123.483,19.042,119.902z M123.291,86.305c6.213,15.021,20.19,25.134,36.478,26.394  c0.236,0.018,0.471,0.026,0.704,0.026c4.655,0,8.599-3.587,8.963-8.307c0.383-4.955-3.324-9.283-8.28-9.667  c-9.489-0.733-17.625-6.605-21.231-15.326l-8.18-19.775c-2.534-6.123-2.518-12.899,0.045-19.08s7.348-10.98,13.471-13.514  c3.299-1.365,6.783-1.992,10.337-1.867c4.967,0.166,9.137-3.709,9.313-8.676c0.176-4.968-3.708-9.137-8.676-9.313  c-6.153-0.226-12.157,0.867-17.854,3.222c-10.567,4.372-18.813,12.63-23.217,23.252c-4.406,10.622-4.424,22.292-0.052,32.857  L123.291,86.305z M179.871,88.883c-6.654-9.379-9.263-20.753-7.346-32.027l3.583-21.096c3.971-23.351,26.195-39.114,49.544-35.149  c11.274,1.916,21.147,8.137,27.802,17.517c6.653,9.378,9.263,20.752,7.347,32.026l-3.586,21.097  c-3.557,20.923-21.774,35.759-42.323,35.76c-2.382,0-4.793-0.199-7.219-0.611C196.399,104.483,186.525,98.262,179.871,88.883z   M194.551,78.468c3.872,5.457,9.603,9.074,16.137,10.185c13.562,2.306,26.475-6.854,28.78-20.418l3.586-21.097  c1.11-6.534-0.41-13.139-4.281-18.597c-3.872-5.457-9.603-9.074-16.137-10.185c-1.408-0.239-2.811-0.355-4.194-0.355  c-11.938,0-22.521,8.618-24.589,20.774l-3.583,21.096C189.159,66.406,190.68,73.01,194.551,78.468z M352.632,348.772  c-64.79,41.493-174.405,84.505-262.007,80.941c-4.988-0.227-9.158,3.658-9.36,8.625c-0.203,4.966,3.659,9.156,8.625,9.359  c3.619,0.148,7.264,0.221,10.948,0.221c89.461,0,197.063-42.722,261.501-83.988c4.186-2.681,5.406-8.247,2.726-12.433  C362.384,347.311,356.818,346.093,352.632,348.772z M238.655,170.472c-1.806-4.632-7.025-6.919-11.655-5.114  c-4.63,1.806-6.92,7.024-5.114,11.655c9.803,25.133,27.677,49.652,50.331,69.04c24.51,20.977,51.714,33.66,78.67,36.681  c0.34,0.038,0.679,0.057,1.013,0.057c4.522,0,8.418-3.399,8.934-7.999c0.553-4.939-3.003-9.393-7.942-9.946  C300.301,258.953,254.784,211.824,238.655,170.472z M428.16,232.992c-8.8-14.316-32.388-16.282-52.581-4.376  c-4.282,2.523-5.707,8.041-3.183,12.323c2.523,4.282,8.042,5.709,12.323,3.183c12.211-7.197,25.468-5.996,28.105-1.704  c2.747,4.469-2.416,25.553-60.192,62.554C294.83,341.99,201.335,380.23,119.635,385.5c21.18-17.697,39.543-41.571,53.95-70.358  c10.659-21.298,18.679-44.442,23.891-68.686c3.101,24.21,5.25,48.134,6.426,71.582c0.249,4.965,4.479,8.779,9.439,8.538  c4.964-0.248,8.787-4.475,8.538-9.438c-2.279-45.474-8.148-92.669-17.446-140.275c-0.888-4.549-5.077-7.671-9.7-7.233  c-4.613,0.446-8.133,4.323-8.133,8.958c0,91.139-40.477,174.908-100.721,208.449c-3.522,1.961-5.311,6.024-4.377,9.946  s4.36,6.745,8.388,6.909c3.619,0.148,7.267,0.221,10.951,0.221c89.469-0.002,197.067-42.719,261.499-83.982  C436.872,272.399,435.57,245.048,428.16,232.992z M140.482,187.944c1.672,25.312,0.825,50.207-2.528,74.128  c-0.69,4.923,2.742,9.472,7.664,10.162c0.423,0.06,0.844,0.088,1.26,0.088c4.417,0,8.271-3.253,8.902-7.752  c3.919-27.963,4.582-57.158,1.972-86.772c-0.425-4.813-4.586-8.463-9.398-8.199c-64.18,3.088-105.486-3.858-117.946-12.115  c-4.144-2.746-9.729-1.611-12.474,2.532c-2.746,4.144-1.612,9.728,2.531,12.474C38.326,184.321,82.839,190.003,140.482,187.944z" data-original="#000000" class="active-path" data-old_color="#000000" fill="#2CC4CB"/></g> </svg>
