<?xml version="1.0"?>
<svg xmlns="http://www.w3.org/2000/svg" height="512px" viewBox="0 0 495.7 495.7" width="512px" class=""><g><path d="m303 63c-.015625-5.515625-4.484375-9.984375-10-10h-172c-5.515625.015625-9.984375 4.484375-10 10v90c.015625 5.515625 4.484375 9.984375 10 10h172c5.515625-.015625 9.984375-4.484375 10-10zm-172 10h152v70h-152zm0 0" data-original="#000000" class="active-path" data-old_color="#000000" fill="#2CC4CB"/><path d="m358.101562 220.699219c-3.703124 0-7.101562.199219-11.101562.402343v-210.902343c.0625-2.652344-.9375-5.222657-2.777344-7.136719-1.839844-1.917969-4.367187-3.0195312-7.023437-3.0625h-287.097657c-27.585937.109375-49.9375 22.414062-50.101562 50v329.800781c0 .199219.199219.398438.199219.5v1c.058593 27.5 22.398437 49.75 49.902343 49.699219h191.597657c25.046875 40.246094 69.097656 64.710938 116.5 64.699219 75.800781 0 137.5-61.597657 137.5-137.5 0-75.898438-61.800781-137.5-137.597657-137.5zm-31.101562 3.5c-52 12.101562-93.300781 54.800781-103.800781 107.800781h-136.199219v-312h240zm-276.898438-204.199219h16.898438v312h-16.898438c-10.796874-.058594-21.332031 3.300781-30.101562 9.601562v-291.601562c.128906-16.554688 13.546875-29.925781 30.101562-30zm0 391c-16.292968 0-29.5-13.207031-29.5-29.5s13.207032-29.5 29.5-29.5h170.699219c-.101562 2-.199219 4.101562-.199219 6.300781-.042968 18.097657 3.5625 36.023438 10.597657 52.699219zm308.097657 64.800781c-41.917969-.023437-80.660157-22.34375-101.699219-58.601562-.273438-.597657-.609375-1.167969-1-1.699219-25.792969-46.296875-17.398438-104.128906 20.5-141.179688 37.894531-37.046874 95.902344-44.136718 141.605469-17.304687 45.699219 26.835937 67.777343 80.945313 53.890625 132.089844-13.886719 51.144531-60.300782 86.660156-113.296875 86.695312zm0 0" data-original="#000000" class="active-path" data-old_color="#000000" fill="#2CC4CB"/><path d="m403.398438 389.300781c8.78125-11.714843 13.515624-25.960937 13.5-40.601562 0-37.71875-30.578126-68.300781-68.296876-68.300781-37.722656 0-68.300781 30.582031-68.300781 68.300781 0 37.722656 30.578125 68.300781 68.300781 68.300781 14.640626.03125 28.890626-4.707031 40.597657-13.5l30.699219 30.699219c1.878906 1.890625 4.441406 2.9375 7.101562 2.902343 2.652344-.011718 5.199219-1.050781 7.101562-2.902343 1.871094-1.867188 2.921876-4.402344 2.921876-7.050781 0-2.644532-1.050782-5.179688-2.921876-7.046876zm-103-40.601562c.007812-21.726563 14.519531-40.777344 35.464843-46.550781 20.945313-5.777344 43.167969 3.144531 54.308594 21.800781 11.136719 18.65625 8.449219 42.453125-6.570313 58.152343-.292968.203126-.558593.4375-.800781.699219-.257812.242188-.492187.511719-.699219.800781-13.976562 13.371094-34.582031 17.113282-52.371093 9.515626-17.789063-7.597657-29.328125-25.074219-29.332031-44.417969zm0 0" data-original="#000000" class="active-path" data-old_color="#000000" fill="#2CC4CB"/></g> </svg>
