<?xml version="1.0"?>
<svg xmlns="http://www.w3.org/2000/svg" id="Layer_1" enable-background="new 0 0 512 512" height="512px" viewBox="0 0 512 512" width="512px" class=""><g><path d="m482.5 70.5c4.143 0 7.5-3.358 7.5-7.5v-31.5c0-17.369-14.131-31.5-31.5-31.5h-298.261c-4.142 0-7.5 3.358-7.5 7.5s3.358 7.5 7.5 7.5h236.261c9.099 0 16.5 7.402 16.5 16.5v449c0 9.098-7.401 16.5-16.5 16.5h-302c-9.098 0-16.5-7.402-16.5-16.5v-25h14c15.164 0 27.5-12.336 27.5-27.5s-12.336-27.5-27.5-27.5h-14v-16.303c0-4.142-3.358-7.5-7.5-7.5s-7.5 3.358-7.5 7.5v16.303h-12c-15.164 0-27.5 12.336-27.5 27.5s12.336 27.5 27.5 27.5h12v25c0 17.369 14.131 31.5 31.5 31.5h364c17.369 0 31.5-14.131 31.5-31.5v-384.441c0-4.142-3.357-7.5-7.5-7.5s-7.5 3.358-7.5 7.5v384.441c0 9.098-7.402 16.5-16.5 16.5h-35.177c2.8-4.536 4.483-9.831 4.66-15.5h22.036c4.143 0 7.5-3.358 7.5-7.5v-436c0-4.142-3.357-7.5-7.5-7.5h-22.036c-.178-5.669-1.86-10.964-4.66-15.5h35.177c9.098 0 16.5 7.402 16.5 16.5v31.5c0 4.142 3.357 7.5 7.5 7.5zm-444 357.5c0-6.893 5.607-12.5 12.5-12.5h41c6.893 0 12.5 5.607 12.5 12.5s-5.607 12.5-12.5 12.5h-41c-6.893 0-12.5-5.607-12.5-12.5zm404.02 38.5h-14.52v-421h14.52z" data-original="#000000" class="active-path" data-old_color="#000000" fill="#FFFFFF"/><path d="m50.5 285.5c-15.164 0-27.5 12.336-27.5 27.5s12.336 27.5 27.5 27.5h12.5v11.186c0 4.142 3.358 7.5 7.5 7.5s7.5-3.358 7.5-7.5v-11.186h13.5c15.164 0 27.5-12.336 27.5-27.5s-12.336-27.5-27.5-27.5h-13.5v-60h13c15.164 0 27.5-12.336 27.5-27.5s-12.336-27.5-27.5-27.5h-13v-60h12.5c15.164 0 27.5-12.336 27.5-27.5s-12.336-27.5-27.5-27.5h-12.5v-24c0-9.098 7.402-16.5 16.5-16.5h32.81c4.142 0 7.5-3.358 7.5-7.5s-3.358-7.5-7.5-7.5h-32.81c-17.369 0-31.5 14.131-31.5 31.5v24h-13.5c-15.164 0-27.5 12.336-27.5 27.5s12.336 27.5 27.5 27.5h13.5v60h-13c-15.164 0-27.5 12.336-27.5 27.5s12.336 27.5 27.5 27.5h13v60zm-13.5-202.5c0-6.893 5.607-12.5 12.5-12.5h41c6.893 0 12.5 5.607 12.5 12.5s-5.607 12.5-12.5 12.5h-41c-6.893 0-12.5-5.607-12.5-12.5zm.5 115c0-6.893 5.607-12.5 12.5-12.5h41c6.893 0 12.5 5.607 12.5 12.5s-5.607 12.5-12.5 12.5h-41c-6.893 0-12.5-5.607-12.5-12.5zm66.5 115c0 6.893-5.607 12.5-12.5 12.5h-41c-6.893 0-12.5-5.607-12.5-12.5s5.607-12.5 12.5-12.5h41c6.893 0 12.5 5.607 12.5 12.5z" data-original="#000000" class="active-path" data-old_color="#000000" fill="#FFFFFF"/><path d="m158.5 388c0 4.142 3.358 7.5 7.5 7.5h180c4.143 0 7.5-3.358 7.5-7.5s-3.357-7.5-7.5-7.5h-180c-4.142 0-7.5 3.358-7.5 7.5z" data-original="#000000" class="active-path" data-old_color="#000000" fill="#FFFFFF"/><path d="m166 427.5h180c4.143 0 7.5-3.358 7.5-7.5s-3.357-7.5-7.5-7.5h-180c-4.142 0-7.5 3.358-7.5 7.5s3.358 7.5 7.5 7.5z" data-original="#000000" class="active-path" data-old_color="#000000" fill="#FFFFFF"/><path d="m256.364 161.947 21.427 2.811c8.415 1.096 16.075-4.586 17.47-12.947l7.309-43.824c1.211-7.256-2.699-14.274-9.507-17.066-7.62-3.125-18.584-6.849-27.537-6.849-11.515 0-30.845 5.995-47.429 22.892-21.02 21.416-31.678 53.489-31.678 95.33v31.908c0 41.841 10.658 73.915 31.678 95.33 16.584 16.896 35.915 22.892 47.429 22.892 8.954 0 19.917-3.725 27.538-6.849 6.808-2.792 10.717-9.81 9.506-17.066l-7.309-43.82c-1.395-8.36-9.063-14.045-17.466-12.947l-21.43 2.807c-21.125-1.83-21.371-39.426-21.371-41.041v-30.52c0-1.614.245-39.211 21.37-41.041zm-29.867 105.164c6.28 14.008 16.554 21.775 29.713 22.461.457.024.914.006 1.364-.053l22.168-2.904c.365-.047.665.193.724.542l7.309 43.82c.051.306-.114.602-.401.72-9.009 3.693-16.768 5.728-21.848 5.728-6.456 0-22.44-3.845-36.724-18.399-17.914-18.251-27.383-47.583-27.383-84.823v-31.908c0-37.24 9.469-66.571 27.383-84.823 14.284-14.554 30.268-18.399 36.724-18.399 5.079 0 12.838 2.034 21.847 5.728.288.118.453.414.402.72l-7.309 43.823c-.059.35-.387.589-.724.542l-22.166-2.907c-.454-.059-.912-.078-1.366-.053-26.732 1.393-36.217 31.072-36.217 56.064v30.52c.001 5.74.634 20.508 6.504 33.601z" data-original="#000000" class="active-path" data-old_color="#000000" fill="#FFFFFF"/></g> </svg>
