<?xml version="1.0"?>
<svg xmlns="http://www.w3.org/2000/svg" id="ping_x5F_pong_x5F_player" enable-background="new 0 0 300 300" height="512px" viewBox="0 0 300 300" width="512px"><g><g><path d="m229.57 58.364c2.211 0 4-1.791 4-4v-8c0-2.209-1.789-4-4-4s-4 1.791-4 4v8c0 2.209 1.789 4 4 4z" data-original="#000000" class="active-path" data-old_color="#000000" fill="#2CC4CB"/><path d="m229.57 66.364c-2.211 0-4 1.791-4 4v8c0 2.209 1.789 4 4 4s4-1.791 4-4v-8c0-2.209-1.789-4-4-4z" data-original="#000000" class="active-path" data-old_color="#000000" fill="#2CC4CB"/><path d="m213.57 66.364h8c2.211 0 4-1.791 4-4s-1.789-4-4-4h-8c-2.211 0-4 1.791-4 4s1.789 4 4 4z" data-original="#000000" class="active-path" data-old_color="#000000" fill="#2CC4CB"/><path d="m237.57 66.364h8c2.211 0 4-1.791 4-4s-1.789-4-4-4h-8c-2.211 0-4 1.791-4 4s1.789 4 4 4z" data-original="#000000" class="active-path" data-old_color="#000000" fill="#2CC4CB"/><path d="m43.57 90.364c-7.719 0-14 6.281-14 14s6.281 14 14 14 14-6.281 14-14-6.281-14-14-14zm0 20c-3.309 0-6-2.691-6-6s2.691-6 6-6 6 2.691 6 6-2.691 6-6 6z" data-original="#000000" class="active-path" data-old_color="#000000" fill="#2CC4CB"/><path d="m245.36 121.533c0 2.362 1.915 4.277 4.276 4.277s4.277-1.915 4.277-4.277-1.915-4.276-4.277-4.276-4.276 1.915-4.276 4.276z" data-original="#000000" class="active-path" data-old_color="#000000" fill="#2CC4CB"/><path d="m69.636 49.257c-2.362 0-4.276 1.915-4.276 4.276 0 2.362 1.915 4.277 4.276 4.277s4.277-1.915 4.277-4.277c0-2.361-1.915-4.276-4.277-4.276z" data-original="#000000" class="active-path" data-old_color="#000000" fill="#2CC4CB"/><path d="m149.641 126.192c1.562-1.562 1.562-4.094 0-5.656s-4.094-1.562-5.656 0c-.781.777-2.047.777-2.828 0-1.562-1.562-4.094-1.562-5.656 0s-1.562 4.094 0 5.656c1.891 1.889 4.398 2.93 7.07 2.93s5.179-1.041 7.07-2.93z" data-original="#000000" class="active-path" data-old_color="#000000" fill="#2CC4CB"/><path d="m264.797 177.12c-3.629-3.633-8.457-5.633-13.598-5.633-.801 0-1.575.134-2.357.23-1.544-2.719-3.347-5.282-5.581-7.519-7.129-7.131-16.859-10.836-27.324-10.352-7.066.308-13.898 2.512-19.957 6.273-7.197-6.284-16.298-9.756-25.934-9.756h-12.476v-6.167l7.551-3.553c9.992-4.703 16.449-14.877 16.449-25.92v-.359c6.617 0 12-5.383 12-12s-5.383-12-12-12v-6c0-20.953-17.047-38-38-38s-38 17.047-38 38v6c-6.617 0-12 5.383-12 12s5.383 12 12 12v.359c0 11.043 6.457 21.217 16.449 25.92l7.551 3.553v6.167h-12.477c-21.793 0-39.523 17.73-39.523 39.523v52.477c0 2.209 1.789 4 4 4h68.408c.365 2.81 1.604 5.467 3.627 7.488 2.414 2.416 5.73 3.783 9.141 3.783.113 0 .23-.002.348-.004 3.531-.098 6.906-1.662 9.293-4.326l6.078-6.941h27.106c2.211 0 4-1.791 4-4v-10.583c.643.032 1.275.123 1.922.123 2.656 0 5.352-.27 8.035-.82 8.129-1.66 15.59-5.703 21.578-11.691 2.901-2.901 5.302-6.189 7.26-9.72.935.138 1.871.277 2.833.277 5.137 0 9.965-2 13.598-5.633 3.633-3.631 5.633-8.461 5.633-13.598s-2-9.967-5.633-13.598zm-127.227-29.412c1.959.603 3.976.929 6 .929s4.041-.326 6-.929v12.656c0 3.309-2.691 6-6 6s-6-2.691-6-6zm48-45.344c0 2.205-1.793 4-4 4v-8c2.207 0 4 1.795 4 4zm-84 0c0-2.205 1.793-4 4-4v8c-2.207 0-4-1.795-4-4zm12 12.36v-30.36c0-16.543 13.457-30 30-30s30 13.457 30 30v30.359c0 7.959-4.652 15.293-11.855 18.682l-12.828 6.037c-3.383 1.59-7.258 1.59-10.633 0l-12.828-6.037c-7.203-3.388-11.856-10.722-11.856-18.681zm-28 75.164c0-17.383 14.141-31.523 31.523-31.523h12.477v2c0 7.719 6.281 14 14 14s14-6.281 14-14v-2h12.477c7.125 0 13.895 2.371 19.419 6.709-.466.428-.949.829-1.399 1.279-5.988 5.986-10.031 13.449-11.691 21.576-1.786 8.718-.63 17.436 3.196 24.882l-25.458 22.29c-1.043.935-1.862 2.062-2.544 3.264h-38v-16c0-2.209-1.789-4-4-4s-4 1.791-4 4v16h-20zm113.162 31.096c.629-3.317-.318-6.867-2.857-9.403-2.539-2.544-6.1-3.486-9.425-2.849-1.67-3.396-2.617-7.137-2.837-11.024l26.14 26.14c-3.889-.22-7.627-1.196-11.021-2.864zm-32.334 27.017c-.91 1.016-2.16 1.596-3.523 1.633-1.34.109-2.645-.473-3.613-1.438-.965-.965-1.477-2.248-1.438-3.613.035-1.363.617-2.615 1.598-3.494l27.371-23.965c.473-.414 1.062-.619 1.648-.619.648 0 1.289.246 1.777.734.934.93.984 2.436.117 3.426zm35.172-9.637h-16.102l9.214-10.523c2.202 1.13 4.491 2.081 6.888 2.734zm33.879-24.629c-4.376 4.376-9.733 7.388-15.545 8.951l-35.133-35.133c1.563-5.81 4.575-11.169 8.951-15.545 6.195-6.195 14.207-9.807 22.559-10.17 8.262-.35 15.793 2.488 21.32 8.014 1.372 1.373 2.517 2.913 3.553 4.524-1.265.781-2.473 1.665-3.55 2.743-3.633 3.631-5.633 8.461-5.633 13.598s2 9.967 5.633 13.598c.961.962 2.015 1.791 3.128 2.517-1.487 2.476-3.204 4.823-5.283 6.903zm23.692-15.076c-4.242 4.238-11.633 4.246-15.879 0-2.121-2.121-3.289-4.941-3.289-7.941s1.168-5.82 3.289-7.941 4.941-3.289 7.938-3.289c3 0 5.82 1.168 7.941 3.289s3.289 4.941 3.289 7.941-1.168 5.82-3.289 7.941z" data-original="#000000" class="active-path" data-old_color="#000000" fill="#2CC4CB"/></g></g> </svg>
