<?xml version="1.0"?>
<svg xmlns="http://www.w3.org/2000/svg" height="512px" viewBox="0 0 64 64" width="512px"><g><path d="m9 32h2v2h-2z" data-original="#000000" class="active-path" data-old_color="#000000" fill="#48337B"/><path d="m13 32h2v2h-2z" data-original="#000000" class="active-path" data-old_color="#000000" fill="#48337B"/><path d="m17 32h2v2h-2z" data-original="#000000" class="active-path" data-old_color="#000000" fill="#48337B"/><path d="m21 32h2v2h-2z" data-original="#000000" class="active-path" data-old_color="#000000" fill="#48337B"/><path d="m25 32h2v2h-2z" data-original="#000000" class="active-path" data-old_color="#000000" fill="#48337B"/><path d="m29 32h2v2h-2z" data-original="#000000" class="active-path" data-old_color="#000000" fill="#48337B"/><path d="m58.657 9.459a2.965 2.965 0 0 0 -1.817-1.395l-5.8-1.564a1 1 0 0 0 -1.227.709 5 5 0 0 1 -6.113 3.545 5.017 5.017 0 0 1 -3.544-6.126 1 1 0 0 0 -.706-1.223l-5.79-1.561a2.952 2.952 0 0 0 -1.94.156h-5.72a1 1 0 0 0 -1 1 5 5 0 0 1 -10 0 1 1 0 0 0 -1-1h-6a3 3 0 0 0 -3 3v54a3 3 0 0 0 3 3h6a1 1 0 0 0 1-1 5 5 0 0 1 10 0 1 1 0 0 0 1 1h6a3 3 0 0 0 3-3v-3.9a5.007 5.007 0 0 1 .843 4.277 1 1 0 0 0 .707 1.223l5.8 1.562a3.007 3.007 0 0 0 3.669-2.128l12.936-48.292a2.97 2.97 0 0 0 -.298-2.283zm-25.657 49.541a1 1 0 0 1 -1 1h-5.071a7 7 0 0 0 -13.858 0h-5.071a1 1 0 0 1 -1-1v-54a1 1 0 0 1 1-1h5.071a7 7 0 0 0 13.858 0h5.071a1 1 0 0 1 1 1zm24.024-47.779-12.941 48.294a1 1 0 0 1 -1.224.71l-4.9-1.32a7.01 7.01 0 0 0 -2.959-6.552v-47.353a2.968 2.968 0 0 0 -.107-.752l3.143.847a7.026 7.026 0 0 0 5.147 7.592 7.012 7.012 0 0 0 8.237-4.009l4.904 1.322a.994.994 0 0 1 .7 1.224z" data-original="#000000" class="active-path" data-old_color="#000000" fill="#48337B"/><path d="m38.932 31.518h2v2h-2z" transform="matrix(.259 -.966 .966 .259 -1.813 62.672)" data-original="#000000" class="active-path" data-old_color="#000000" fill="#48337B"/><path d="m42.796 32.553h2v2h-2z" transform="matrix(.259 -.966 .966 .259 .051 67.172)" data-original="#000000" class="active-path" data-old_color="#000000" fill="#48337B"/><path d="m46.659 33.588h2v2h-2z" transform="matrix(.259 -.966 .966 .259 1.914 71.672)" data-original="#000000" class="active-path" data-old_color="#000000" fill="#48337B"/><path d="m16.475 25.851a1 1 0 0 0 .972.044l8-4a1 1 0 0 0 0-1.79l-8-4a1 1 0 0 0 -1.447.895v8a1 1 0 0 0 .475.851zm1.525-7.233 4.764 2.382-4.764 2.382z" data-original="#000000" class="active-path" data-old_color="#000000" fill="#48337B"/><path d="m20 30a9 9 0 1 0 -9-9 9.01 9.01 0 0 0 9 9zm0-16a7 7 0 1 1 -7 7 7.008 7.008 0 0 1 7-7z" data-original="#000000" class="active-path" data-old_color="#000000" fill="#48337B"/><path d="m28 38h-16a1 1 0 0 0 -1 1v4a1 1 0 0 0 1 1h16a1 1 0 0 0 1-1v-4a1 1 0 0 0 -1-1zm-1 4h-14v-2h14z" data-original="#000000" class="active-path" data-old_color="#000000" fill="#48337B"/><path d="m28 46h-16a1 1 0 0 0 -1 1v4a1 1 0 0 0 1 1h16a1 1 0 0 0 1-1v-4a1 1 0 0 0 -1-1zm-1 4h-14v-2h14z" data-original="#000000" class="active-path" data-old_color="#000000" fill="#48337B"/></g> </svg>
